<svg xmlns="http://www.w3.org/2000/svg">
    <!-- иконка стрелка вправо -->
    <symbol id="arrow-right" viewBox="0 0 24 24">
        <path fill-rule="evenodd" clip-rule="evenodd" d="M14.7929 6.79289C15.1834 6.40237 15.8166 6.40237 16.2071 6.79289L20.7071 11.2929C21.0976 11.6834 21.0976 12.3166 20.7071 12.7071L16.2071 17.2071C15.8166 17.5976 15.1834 17.5976 14.7929 17.2071C14.4024 16.8166 14.4024 16.1834 14.7929 15.7929L17.5858 13H4C3.44772 13 3 12.5523 3 12C3 11.4477 3.44772 11 4 11H17.5858L14.7929 8.20711C14.4024 7.81658 14.4024 7.18342 14.7929 6.79289Z"/>
    </symbol>
    <!-- иконка стрелка влево -->
    <symbol id="arrow-left" viewBox="0 0 24 24">
        <path fill-rule="evenodd" clip-rule="evenodd" d="M9.20711 17.2071C8.81658 17.5976 8.18342 17.5976 7.79289 17.2071L3.29289 12.7071C2.90237 12.3166 2.90237 11.6834 3.29289 11.2929L7.79289 6.79289C8.18342 6.40237 8.81658 6.40237 9.20711 6.79289C9.59763 7.18342 9.59763 7.81658 9.20711 8.20711L6.41421 11L20 11C20.5523 11 21 11.4477 21 12C21 12.5523 20.5523 13 20 13L6.41421 13L9.20711 15.7929C9.59763 16.1834 9.59763 16.8166 9.20711 17.2071Z"/>
    </symbol>
    <!-- иконка Play -->
    <symbol id="play_btn" width="19" height="22" viewBox="0 0 19 22" fill="none">
        <path d="M18 9.66132C18.6667 10.0462 18.6667 11.0085 18 11.3934L1.5 20.9197C0.833333 21.3046 -1.0183e-06 20.8234 -9.84655e-07 20.0536L-1.51841e-07 1.00106C-1.18192e-07 0.231265 0.833334 -0.249862 1.5 0.135038L18 9.66132Z" fill="white"/>
    </symbol>
    <!-- иконка Mute -->
    <symbol id="mute_btn" width="14" height="14" viewBox="0 0 14 14" >
        <path fill-rule="evenodd" clip-rule="evenodd" d="M7.83333 11.4167C8.41667 11.8333 9.16667 11.5 9.16667 10.75V7L6.08333 10.0833L7.83333 11.4167Z" fill="white"/>
        <path fill-rule="evenodd" clip-rule="evenodd" d="M13.0833 0.25C12.75 -0.0833333 12.25 -0.0833333 11.9167 0.25L9.16667 3V0.916666C9.16667 0.25 8.33333 -0.166667 7.83333 0.25L5.5 2.16667C5.16667 2.33333 4.83333 2.5 4.41667 2.5H2.5C1.58333 2.5 0.833333 3.25 0.833333 4.16667V7.5C0.833333 8.41667 1.58333 9.16667 2.5 9.16667H3L0.25 11.9167C-0.0833333 12.25 -0.0833333 12.75 0.25 13.0833C0.583333 13.4167 1.08333 13.4167 1.41667 13.0833L13.0833 1.41667C13.4167 1.08333 13.4167 0.583333 13.0833 0.25Z" fill="white"/>
    </symbol>
    <!-- ic-house -->
    <symbol id="ic-house" viewBox="0 0 48 48" xmlns="http://www.w3.org/2000/svg">
            <g clip-path="url(#clip0_174907_1802)">
                <path d="M28.9219 21.0938C26.9645 21.0938 25.2653 21.9855 24 23.6748C22.7344 21.9855 21.0352 21.0938 19.0781 21.0938C15.423 21.0938 12.75 24.0978 12.75 27.7841C12.75 32.5499 17.369 35.5437 23.0848 40.4425C23.3481 40.6681 23.6741 40.7813 24 40.7809C24.3259 40.7809 24.6519 40.6681 24.9152 40.4425C30.6379 35.5375 35.25 32.5481 35.25 27.7841C35.25 24.1007 32.5796 21.0938 28.9219 21.0938ZM24 37.5286C18.85 33.178 15.5625 30.832 15.5625 27.7841C15.5625 25.5732 17.0739 23.9063 19.0781 23.9063C21.6844 23.9063 22.6069 26.9652 22.6472 27.1036C22.8193 27.7075 23.3712 28.125 24 28.125C24.6306 28.125 25.184 27.705 25.3539 27.0978C25.363 27.0659 26.2782 23.9063 28.9219 23.9063C30.9258 23.9063 32.4375 25.5732 32.4375 27.7841C32.4375 30.8346 29.1456 33.1816 24 37.5286Z"/>
                <path d="M46.5934 45.188H42.3746V23.3447C42.3827 23.3505 42.3907 23.356 42.3988 23.3619C43.0203 23.8075 43.8842 23.6746 44.343 23.063L47.7188 18.5641C47.9451 18.262 48.0406 17.8819 47.9843 17.5087C47.9275 17.1355 47.7231 16.8008 47.417 16.58C47.1921 16.4178 24.9437 0.354281 24.8298 0.271883C24.3369 -0.0884687 23.6678 -0.0892012 23.1742 0.268953C23.1064 0.318026 18.8573 3.38578 14.0625 6.84794V4.21964C14.0625 3.44291 13.433 2.81339 12.6562 2.81339H7.03125C6.25452 2.81339 5.625 3.44291 5.625 4.21964V12.9399C2.74146 15.0218 0.651123 16.5309 0.583008 16.58C0.277222 16.8008 0.072876 17.1355 0.0161133 17.5087C-0.0406494 17.8819 0.0549317 18.2624 0.281616 18.5641L3.65698 23.063C4.11584 23.6746 4.97974 23.8075 5.6012 23.3619C5.60925 23.356 5.61694 23.3505 5.625 23.3447V45.1884H1.40625C0.629517 45.1884 0 45.8179 0 46.5947C0 47.371 0.629517 48.0009 1.40625 48.0009H46.5934C47.3701 48.0009 47.9996 47.371 47.9996 46.5947C47.9996 45.8179 47.3701 45.188 46.5934 45.188ZM8.4375 5.62589H11.25V8.87858C10.2975 9.56632 9.35083 10.2497 8.4375 10.9089V5.62589ZM5.08081 20.2743L3.39075 18.0218C17.5712 7.78361 22.3722 4.31705 24 3.14151C26.2672 4.77884 33.1714 9.76371 44.6093 18.0218L42.9196 20.2743C42.7793 20.174 24.98 7.4108 24.8225 7.29764C24.3311 6.94315 23.6678 6.94388 23.1771 7.29801C22.8582 7.52726 5.48254 19.9861 5.08081 20.2743ZM8.4375 21.3279C18.7676 13.9209 22.5864 11.1828 24 10.1687C25.9102 11.5387 31.1199 15.2745 39.5625 21.3279V45.1884H8.4375V21.3279Z" />
            </g>
        <defs>
            <clipPath id="clip0_174907_1802">
                <rect width="48" height="48" fill="white"/>
            </clipPath>
        </defs>
    </symbol>
    <!-- иконка ic-construction -->
    <symbol id="ic-construction" viewBox="0 0 52 52">
        <g clip-path="url(#clip0_174334_2125)">
            <path d="M50.4766 27.5234C51.3179 27.5234 52 26.8413 52 26V14.625C52 13.7837 51.3179 13.1016 50.4766 13.1016C49.4146 13.1016 28.668 13.1016 27.5234 13.1016V3.25C27.5234 2.40866 26.8413 1.72656 26 1.72656H9.75C8.90866 1.72656 8.22656 2.40866 8.22656 3.25V13.1016H1.52344C0.682094 13.1016 0 13.7837 0 14.625V26C0 26.8413 0.682094 27.5234 1.52344 27.5234H8.22656V35.8516H1.52344C0.682094 35.8516 0 36.5337 0 37.375V48.75C0 49.5913 0.682094 50.2734 1.52344 50.2734H50.4766C51.3179 50.2734 52 49.5913 52 48.75V37.375C52 36.5337 51.3179 35.8516 50.4766 35.8516H43.7734V27.5234H50.4766ZM48.9531 24.4766C47.3232 24.4766 37.2597 24.4766 35.6484 24.4766V16.1484H48.9531V24.4766ZM32.6016 24.4766C31.0059 24.4766 21.0046 24.4766 19.3984 24.4766V16.1484H32.6016V24.4766ZM11.2734 4.77344H24.4766V13.1016C22.8809 13.1016 12.8796 13.1016 11.2734 13.1016V4.77344ZM3.04688 24.4766V16.1484H16.3516V24.4766C14.7396 24.4766 4.67645 24.4766 3.04688 24.4766ZM11.2734 27.5234H24.4766V35.8516C22.8809 35.8516 12.8796 35.8516 11.2734 35.8516V27.5234ZM3.04688 38.8984H16.3516V47.2266H3.04688V38.8984ZM19.3984 38.8984H32.6016V47.2266H19.3984V38.8984ZM48.9531 38.8984V47.2266H35.6484V38.8984H48.9531ZM40.7266 35.8516C39.1309 35.8516 29.1296 35.8516 27.5234 35.8516V27.5234H40.7266V35.8516Z"/>
        </g>
        <defs>
            <clipPath id="clip0_174334_2125">
                <rect width="52" height="52" fill="white"/>
            </clipPath>
        </defs>
    </symbol>
    <!-- иконка ic-plan -->
    <symbol id="ic-plan"  viewBox="0 0 52 52">
        <g clip-path="url(#clip0_174334_2053)">
            <path d="M45.9062 3.14844C43.6552 3.14844 41.6854 4.37521 40.6303 6.19531H1.52344C0.682094 6.19531 0 6.87741 0 7.71875V47.3281C0 48.1695 0.682094 48.8516 1.52344 48.8516H45.9062C49.2663 48.8516 52 46.1179 52 42.7578V9.24219C52 5.88209 49.2663 3.14844 45.9062 3.14844ZM45.9062 45.8047C45.3103 45.8047 3.6011 45.8047 3.04688 45.8047V9.24219H39.8125V42.7578C39.8125 43.5992 40.4946 44.2812 41.3359 44.2812C42.1773 44.2812 42.8594 43.5992 42.8594 42.7578C42.8594 41.0778 44.2262 39.7109 45.9062 39.7109C47.5863 39.7109 48.9531 41.0778 48.9531 42.7578C48.9531 44.4379 47.5863 45.8047 45.9062 45.8047ZM48.9531 37.4818C48.0563 36.9619 47.0153 36.6641 45.9062 36.6641C44.7972 36.6641 43.7562 36.9619 42.8594 37.4818V9.24219C42.8594 7.56214 44.2262 6.19531 45.9062 6.19531C47.5863 6.19531 48.9531 7.56214 48.9531 9.24219V37.4818Z"/>
            <path d="M35.1406 12.2891H7.71875C6.87741 12.2891 6.19531 12.9712 6.19531 13.8125V41.2344C6.19531 42.0757 6.87741 42.7578 7.71875 42.7578H22.9531C23.3572 42.7578 23.7446 42.5972 24.0303 42.3115C24.3161 42.0259 24.4766 41.6384 24.4766 41.2344V38.1875C24.4766 36.2013 25.7501 34.507 27.5234 33.8782V41.2344C27.5234 42.0757 28.2055 42.7578 29.0469 42.7578H35.1406C35.982 42.7578 36.6641 42.0757 36.6641 41.2344V13.8125C36.6641 12.9712 35.982 12.2891 35.1406 12.2891ZM33.6172 39.7109H30.5703V32.0938C30.5703 31.2524 29.8882 30.5703 29.0469 30.5703C24.8468 30.5703 21.4297 33.9874 21.4297 38.1875V39.7109H9.24219V30.5703H15.3359V35.1406C15.3359 35.982 16.018 36.6641 16.8594 36.6641C17.7007 36.6641 18.3828 35.982 18.3828 35.1406V29.0469C18.3828 28.2055 17.7007 27.5234 16.8594 27.5234H9.24219V15.3359H18.3828V21.4297H13.8125C12.9712 21.4297 12.2891 22.1118 12.2891 22.9531C12.2891 23.7945 12.9712 24.4766 13.8125 24.4766H19.9062H26C26.8413 24.4766 27.5234 23.7945 27.5234 22.9531C27.5234 22.1118 26.8413 21.4297 26 21.4297H21.4297V15.3359H33.6172V39.7109Z"/>
        </g>
        <defs>
            <clipPath id="clip0_174334_2053">
                <rect width="52" height="52" fill="white"/>
            </clipPath>
        </defs>
    </symbol>
    <!-- иконка ic-painting -->
    <symbol id="ic-painting"  viewBox="0 0 52 52" xmlns="http://www.w3.org/2000/svg">
       <path d="M42.8594 4.57031C42.8594 2.05029 40.8091 0 38.2891 0H7.82031C5.30029 0 3.25 2.05029 3.25 4.57031V13.7109C3.25 16.231 5.30029 18.2813 7.82031 18.2813H38.2891C40.8091 18.2813 42.8594 16.231 42.8594 13.7109V12.1875H44.3828C45.2227 12.1875 45.9063 12.8711 45.9063 13.7109V19.8047C45.9063 20.6446 45.2227 21.3281 44.3828 21.3281H26.1016C23.5815 21.3281 21.5313 23.3784 21.5313 25.8984V30.4688H20.0078C19.1664 30.4688 18.4844 31.1507 18.4844 31.9922V38.003L16.9609 44.1952C15.9703 48.1573 18.964 52 23.0547 52C27.1473 52 30.1379 48.1533 29.15 44.2007L27.625 38.003V31.9922C27.625 31.1507 26.943 30.4688 26.1016 30.4688H24.5781V25.8984C24.5781 25.0586 25.2617 24.375 26.1016 24.375H44.3828C46.9028 24.375 48.9531 22.3247 48.9531 19.8047V13.7109C48.9531 11.1909 46.9028 9.14063 44.3828 9.14063H42.8594V4.57031ZM24.5781 33.5156V36.6641H21.5313V33.5156H24.5781ZM23.0547 48.9531C20.956 48.9531 19.4044 46.9834 19.9182 44.9287L21.202 39.7109H24.9074L26.1924 44.9343C26.7026 46.9746 25.1609 48.9531 23.0547 48.9531ZM7.82031 3.04688H38.2891C39.1289 3.04688 39.8125 3.73044 39.8125 4.57031V6.09375H35.2422C33.7616 6.09375 31.8684 6.64838 29.6761 7.29028C26.7149 8.15753 23.359 9.14063 20.0078 9.14063C16.7412 9.14063 14.4381 8.18649 12.4061 7.34503C10.8525 6.70154 9.38541 6.09375 7.82031 6.09375H6.29688V4.57031C6.29688 3.73044 6.98044 3.04688 7.82031 3.04688ZM39.8125 13.7109C39.8125 14.5508 39.1289 15.2344 38.2891 15.2344H7.82031C6.98044 15.2344 6.29688 14.5508 6.29688 13.7109V9.14063H7.82031C8.77921 9.14063 9.86545 9.59052 11.2401 10.1598C13.4209 11.0632 16.1349 12.1875 20.0078 12.1875C23.7962 12.1875 27.531 11.0933 30.5326 10.2146C32.4179 9.66232 34.1988 9.14063 35.2422 9.14063H39.8125V13.7109Z"/>
    </symbol>
    <!-- иконка ic-pantone -->
    <symbol id="ic-pantone"  viewBox="0 0 52 52">
        <g clip-path="url(#clip0_174334_1985)">
            <path d="M10.7656 36.6641C8.24555 36.6641 6.19531 38.7143 6.19531 41.2344C6.19531 43.7544 8.24555 45.8047 10.7656 45.8047C13.2857 45.8047 15.3359 43.7544 15.3359 41.2344C15.3359 38.7143 13.2857 36.6641 10.7656 36.6641ZM10.7656 42.7578C9.9256 42.7578 9.24219 42.0744 9.24219 41.2344C9.24219 40.3944 9.9256 39.7109 10.7656 39.7109C11.6056 39.7109 12.2891 40.3944 12.2891 41.2344C12.2891 42.0744 11.6056 42.7578 10.7656 42.7578Z"/>
            <path d="M49.2504 30.9497C50.2897 29.5433 50.4811 27.582 49.5361 25.9454L43.4455 15.2945C42.3919 13.4696 40.1701 12.6369 38.1882 13.1667C38.6102 11.2698 37.7823 9.23477 36.0124 8.21295L25.4584 2.11961C23.9511 1.24922 22.1489 1.33839 20.7628 2.19568C19.9596 0.880141 18.5104 0 16.8594 0H4.57031C2.05024 0 0 2.05024 0 4.57031C0 5.62707 0 46.2132 0 47.4297C0 49.9498 2.05024 52 4.57031 52C5.75382 52 41.6374 52 47.4297 52C49.9498 52 52 49.9498 52 47.4297V35.1406C52 33.2675 50.8669 31.6547 49.2504 30.9497ZM18.3828 47.4297C18.3828 48.2697 17.6994 48.9531 16.8594 48.9531H4.57031C3.73029 48.9531 3.04688 48.2697 3.04688 47.4297C3.04688 46.7337 3.04688 34.2857 3.04688 33.6172H18.3828V47.4297ZM18.3828 30.5703H3.04688V18.2812H18.3828V30.5703ZM18.3828 15.2344H3.04688V4.57031C3.04688 3.73029 3.73029 3.04688 4.57031 3.04688H16.8594C17.6994 3.04688 18.3828 3.73029 18.3828 4.57031V15.2344ZM21.4297 6.04988L21.8533 5.31609C22.2736 4.58839 23.2073 4.33814 23.9349 4.75831L34.489 10.8516C35.2167 11.2718 35.4668 12.2056 35.0456 12.9353L33.2853 15.9951C33.2412 16.0602 33.2016 16.1278 33.1683 16.1984L21.4297 36.6026V6.04988ZM21.4297 42.7126L35.671 17.9581L38.6156 16.258C39.3621 15.8271 40.3859 16.0888 40.8037 16.8125L46.8944 27.4633C47.3156 28.1929 47.07 29.1283 46.3328 29.5539C45.2449 30.1837 22.5011 43.3507 21.4297 43.971V42.7126ZM48.9531 47.4297C48.9531 48.2697 48.2697 48.9531 47.4297 48.9531H21.1677C21.3301 48.4951 21.4212 48.0039 21.4282 47.4926L45.3954 33.6172H47.4297C48.2697 33.6172 48.9531 34.3006 48.9531 35.1406V47.4297Z"/>
        </g>
        <defs>
        <clipPath id="clip0_174334_1985">
             <rect width="52" height="52" fill="white"/>
            </clipPath>
        </defs>
    </symbol>
    <!-- ic-like -->
    <symbol id="ic-like" viewBox="0 0 48 48" xmlns="http://www.w3.org/2000/svg">
        <path d="M44.0166 29.7188C44.6859 28.9716 45.0938 27.9853 45.0938 26.9062C45.0938 24.5803 43.2009 22.6875 40.875 22.6875H32.6869C33.4978 20.2266 33.8438 16.9613 33.8438 15.5616V14.1562C33.8438 11.055 31.32 8.53125 28.2188 8.53125H26.8125C26.1675 8.53125 25.605 8.97 25.4484 9.59625L24.6825 12.6609C23.6091 16.9528 20.2013 21.6881 16.6744 22.5487C16.0566 20.985 14.5312 19.875 12.75 19.875H4.3125C3.53625 19.875 2.90625 20.505 2.90625 21.2812V46.5938C2.90625 47.37 3.53625 48 4.3125 48H12.75C14.4272 48 15.8784 47.0166 16.5581 45.5953L21.39 47.2059C22.9697 47.7328 24.6159 48 26.2819 48H38.0625C40.3884 48 42.2812 46.1072 42.2812 43.7812C42.2812 43.2328 42.1763 42.7078 41.985 42.2269C43.7738 41.7384 45.0938 40.0987 45.0938 38.1562C45.0938 37.0772 44.6859 36.0909 44.0166 35.3438C44.6859 34.5966 45.0938 33.6103 45.0938 32.5312C45.0938 31.4522 44.6859 30.4659 44.0166 29.7188ZM14.1562 43.7812C14.1562 44.5566 13.5253 45.1875 12.75 45.1875H5.71875V22.6875H12.75C13.5253 22.6875 14.1562 23.3184 14.1562 24.0938V43.7812ZM38.0625 31.125H40.875C41.6503 31.125 42.2812 31.7559 42.2812 32.5312C42.2812 33.3066 41.6503 33.9375 40.875 33.9375H38.0625C37.2863 33.9375 36.6562 34.5675 36.6562 35.3438C36.6562 36.12 37.2863 36.75 38.0625 36.75H40.875C41.6503 36.75 42.2812 37.3809 42.2812 38.1562C42.2812 38.9316 41.6503 39.5625 40.875 39.5625H38.0625C37.2863 39.5625 36.6562 40.1925 36.6562 40.9688C36.6562 41.745 37.2863 42.375 38.0625 42.375C38.8378 42.375 39.4688 43.0059 39.4688 43.7812C39.4688 44.5566 38.8378 45.1875 38.0625 45.1875H26.2819C24.9187 45.1875 23.5716 44.9691 22.2787 44.5378L16.9688 42.7678V25.3669C19.1747 24.9478 21.3337 23.5509 23.2828 21.2644C25.1859 19.0313 26.7291 16.0706 27.4106 13.3434L27.9103 11.3438H28.2188C29.7694 11.3438 31.0312 12.6056 31.0312 14.1562V15.5616C31.0312 17.4497 30.4406 21.0712 29.685 22.6875H26.8125C26.0362 22.6875 25.4062 23.3175 25.4062 24.0938C25.4062 24.87 26.0362 25.5 26.8125 25.5H40.875C41.6503 25.5 42.2812 26.1309 42.2812 26.9062C42.2812 27.6816 41.6503 28.3125 40.875 28.3125H38.0625C37.2863 28.3125 36.6562 28.9425 36.6562 29.7188C36.6562 30.495 37.2863 31.125 38.0625 31.125Z" fill="#9A9CA5"/>
        <path d="M9.9375 42.375C10.7142 42.375 11.3438 41.7454 11.3438 40.9688C11.3438 40.1921 10.7142 39.5625 9.9375 39.5625C9.16085 39.5625 8.53125 40.1921 8.53125 40.9688C8.53125 41.7454 9.16085 42.375 9.9375 42.375Z" fill="#9A9CA5"/>
        <path d="M29.625 0C28.8484 0 28.2188 0.629625 28.2188 1.40625V4.3125C28.2188 5.08913 28.8484 5.71875 29.625 5.71875C30.4016 5.71875 31.0312 5.08913 31.0312 4.3125V1.40625C31.0312 0.629625 30.4016 0 29.625 0Z" fill="#9A9CA5"/>
        <path d="M23.6589 6.20139L21.6701 4.21267C21.1211 3.66348 20.2306 3.66348 19.6814 4.21267C19.1322 4.76186 19.1322 5.6522 19.6814 6.20139L21.6701 8.19011C22.2192 8.7392 23.1098 8.7393 23.6589 8.19011C24.2081 7.64092 24.2081 6.75058 23.6589 6.20139Z" fill="#9A9CA5"/>
        <path d="M39.569 4.21267C39.0199 3.66348 38.1295 3.66348 37.5803 4.21267L35.5916 6.2013C35.0424 6.75049 35.0424 7.64083 35.5916 8.19002C36.1407 8.73921 37.0311 8.7393 37.5803 8.19011L39.569 6.20139C40.1182 5.6522 40.1182 4.76186 39.569 4.21267Z" fill="#9A9CA5"/>
    </symbol>
    <!-- ic-helmet -->
    <symbol id="ic-helmet" viewBox="0 0 48 48" xmlns="http://www.w3.org/2000/svg">
        <path d="M45.1875 34.0856V29.625C45.1875 24.9949 43.6945 20.594 40.87 16.8982C38.3629 13.6176 34.8964 11.1016 31.026 9.73163C30.9183 7.50066 29.0697 5.71875 26.8125 5.71875H21.1875C18.9303 5.71875 17.0817 7.50066 16.974 9.73163C13.1036 11.1016 9.63713 13.6176 7.12997 16.8982C4.30547 20.594 2.8125 24.9949 2.8125 29.625V34.0856C1.17572 34.6661 0 36.2292 0 38.0625C0 40.3887 1.89253 42.2812 4.21875 42.2812H43.7812C46.1075 42.2812 48 40.3887 48 38.0625C48 36.2292 46.8243 34.6661 45.1875 34.0856ZM5.625 29.625C5.625 24.554 7.79119 19.8068 11.3438 16.4198V21.1875C11.3438 21.9641 11.9734 22.5938 12.75 22.5938C13.5266 22.5938 14.1562 21.9641 14.1562 21.1875V14.2141C15.0424 13.6484 15.9822 13.1549 16.9688 12.7442V24C16.9688 24.7766 17.5984 25.4062 18.375 25.4062C19.1516 25.4062 19.7812 24.7766 19.7812 24V10.7749C19.7813 10.771 19.7812 10.7672 19.7812 10.7633V9.9375C19.7812 9.16209 20.4121 8.53125 21.1875 8.53125H26.8125C27.5879 8.53125 28.2188 9.16209 28.2188 9.9375V10.763C28.2188 10.767 28.2187 10.7709 28.2188 10.775V24C28.2188 24.7766 28.8484 25.4062 29.625 25.4062C30.4016 25.4062 31.0312 24.7766 31.0312 24V12.7442C32.0178 13.155 32.9576 13.6485 33.8438 14.2141V21.1875C33.8438 21.9641 34.4734 22.5938 35.25 22.5938C36.0266 22.5938 36.6562 21.9641 36.6562 21.1875V16.4198C40.2088 19.8068 42.375 24.554 42.375 29.625V33.8438H5.625V29.625ZM43.7812 39.4688H4.21875C3.44334 39.4688 2.8125 38.8379 2.8125 38.0625C2.8125 37.2871 3.44334 36.6562 4.21875 36.6562H43.7812C44.5567 36.6562 45.1875 37.2871 45.1875 38.0625C45.1875 38.8379 44.5567 39.4688 43.7812 39.4688Z"/>
    </symbol>
    <!-- иконка youtube -->
    <symbol id="youtube"  viewBox="0 0 24 24"  xmlns="http://www.w3.org/2000/svg">
         <g opacity="1">
            <path fill-rule="evenodd" clip-rule="evenodd" d="M21.3903 4.11358C22.4182 4.39044 23.2288 5.20086 23.5055 6.22899C24.0197 8.10691 23.9999 12.0213 23.9999 12.0213C23.9999 12.0213 23.9999 15.9158 23.5057 17.7939C23.2288 18.8218 22.4184 19.6324 21.3903 19.9091C19.5122 20.4035 12 20.4035 12 20.4035C12 20.4035 4.50731 20.4035 2.60961 19.8895C1.58148 19.6127 0.771054 18.802 0.4942 17.7741C0 15.9158 0 12.0015 0 12.0015C0 12.0015 0 8.10691 0.4942 6.22899C0.770871 5.20104 1.60125 4.37066 2.60943 4.09399C4.48753 3.59961 11.9998 3.59961 11.9998 3.59961C11.9998 3.59961 19.5122 3.59961 21.3903 4.11358ZM15.8549 12.0016L9.60788 15.5996V8.40355L15.8549 12.0016Z"/>
        </g>
    </symbol>
    <!-- иконка whatsapp -->
    <symbol id="whatsapp" viewBox="0 0 24 24"  xmlns="http://www.w3.org/2000/svg">
        <g opacity="1">
         <path d="M22 11.7424C22 17.1231 17.6047 21.4849 12.1818 21.4849C10.4602 21.4849 8.84289 21.0449 7.43578 20.2727L2 22L3.77222 16.7729C2.87822 15.3049 2.36333 13.5831 2.36333 11.7424C2.36333 6.36178 6.75911 2 12.1818 2C17.6051 2 22 6.36178 22 11.7424ZM12.1818 3.55156C7.62978 3.55156 3.92711 7.226 3.92711 11.7424C3.92711 13.5347 4.51133 15.1944 5.49956 16.5447L4.46822 19.5867L7.64044 18.5784C8.94378 19.4342 10.5051 19.9333 12.182 19.9333C16.7333 19.9333 20.4367 16.2593 20.4367 11.7429C20.4367 7.22644 16.7336 3.55156 12.1818 3.55156ZM17.1398 13.9862C17.0791 13.8869 16.9189 13.8269 16.6784 13.7076C16.4376 13.5882 15.254 13.0102 15.034 12.9309C14.8133 12.8513 14.6524 12.8113 14.4922 13.0502C14.332 13.2893 13.8707 13.8269 13.73 13.9862C13.5896 14.146 13.4493 14.166 13.2084 14.0464C12.968 13.9271 12.1927 13.6747 11.2733 12.8613C10.558 12.2284 10.0749 11.4471 9.93444 11.2078C9.79422 10.9689 9.91978 10.8398 10.04 10.7209C10.1484 10.6138 10.2809 10.442 10.4011 10.3027C10.5218 10.1631 10.5618 10.0638 10.6416 9.90422C10.7222 9.74489 10.682 9.60556 10.6216 9.48578C10.5616 9.36644 10.0798 8.19133 9.87933 7.71311C9.67889 7.23533 9.47867 7.31489 9.338 7.31489C9.19778 7.31489 9.03711 7.29489 8.87667 7.29489C8.71622 7.29489 8.45533 7.35467 8.23467 7.59356C8.01422 7.83267 7.39267 8.41044 7.39267 9.58533C7.39267 10.7604 8.25467 11.8958 8.37533 12.0549C8.49556 12.214 10.0398 14.7038 12.4864 15.66C14.9333 16.6158 14.9333 16.2969 15.3747 16.2569C15.8156 16.2171 16.7982 15.6793 16.9996 15.122C17.1996 14.5638 17.1996 14.0858 17.1398 13.9862Z"/>
        </g>
    </symbol>
    <!-- иконка twitter -->
    <symbol id="twitter" viewBox="0 0 24 24"  xmlns="http://www.w3.org/2000/svg">
        <g opacity="1">
           <path d="M22.5 5.77233C21.7271 6.10027 20.8978 6.32267 20.0264 6.42196C20.9161 5.91181 21.5972 5.10263 21.92 4.1414C21.0854 4.61383 20.1642 4.95688 19.1826 5.14285C18.3966 4.33994 17.2785 3.83984 16.0384 3.83984C13.6593 3.83984 11.7303 5.68691 11.7303 7.9637C11.7303 8.2866 11.7683 8.60199 11.8418 8.90357C8.26201 8.73141 5.08768 7.08917 2.96314 4.59372C2.59176 5.20189 2.38049 5.91053 2.38049 6.66697C2.38049 8.09814 3.14161 9.36093 4.2964 10.0997C3.5904 10.0771 2.92639 9.89116 2.34508 9.58205V9.63357C2.34508 11.6314 3.83056 13.2988 5.80024 13.6783C5.43936 13.7713 5.05882 13.8228 4.66514 13.8228C4.38696 13.8228 4.11794 13.7964 3.85417 13.7461C4.40267 15.3859 5.99315 16.5783 7.87756 16.611C6.40388 17.7167 4.54573 18.3739 2.52749 18.3739C2.17976 18.3739 1.83724 18.3537 1.5 18.3173C3.40671 19.4896 5.67036 20.1732 8.10327 20.1732C16.028 20.1732 20.3597 13.8881 20.3597 8.43741L20.3453 7.90341C21.1917 7.32537 21.9239 6.59912 22.5 5.77233Z"/>
        </g>
    </symbol>
    <!-- иконка messanger -->
    <symbol id="messanger" viewBox="0 0 24 24"  xmlns="http://www.w3.org/2000/svg">
        <g opacity="1">
            <path d="M12 2C6.4775 2 2 6.145 2 11.2587C2 14.1725 3.45375 16.7712 5.72625 18.4688V22L9.13125 20.1313C10.04 20.3825 11.0025 20.5187 12 20.5187C17.5225 20.5187 22 16.3737 22 11.26C22 6.14625 17.5225 2 12 2ZM12.9937 14.4688L10.4475 11.7525L5.47875 14.4688L10.945 8.66625L13.5538 11.3825L18.46 8.66625L12.9937 14.4688Z"/>
        </g>
    </symbol>
    <!-- иконка facebook -->
    <symbol id="facebook"  viewBox="0 0 24 24"  xmlns="http://www.w3.org/2000/svg">
        <g opacity="1">
           <path d="M17.5628 1.00458L14.7856 1C11.6654 1 9.64903 3.12509 9.64903 6.41423V8.91055H6.85662C6.61532 8.91055 6.41992 9.1115 6.41992 9.35937V12.9763C6.41992 13.2241 6.61554 13.4249 6.85662 13.4249H9.64903V22.5514C9.64903 22.7993 9.84443 23 10.0857 23H13.729C13.9703 23 14.1657 22.799 14.1657 22.5514V13.4249H17.4307C17.672 13.4249 17.8674 13.2241 17.8674 12.9763L17.8688 9.35937C17.8688 9.24036 17.8226 9.12638 17.7409 9.04215C17.6591 8.95793 17.5477 8.91055 17.4318 8.91055H14.1657V6.79439C14.1657 5.77728 14.4017 5.26094 15.6915 5.26094L17.5624 5.26025C17.8035 5.26025 17.9989 5.0593 17.9989 4.81166V1.45317C17.9989 1.20576 17.8037 1.00504 17.5628 1.00458Z"/>
        </g>
    </symbol>
    <!-- ic-LinkedIn -->
    <symbol id="ic-LinkedIn" viewBox="0 0 20 20" xmlns="http://www.w3.org/2000/svg">
        <path d="M18.3285 18.3327L18.3327 18.332V12.2195C18.3327 9.22921 17.6889 6.92574 14.1931 6.92574C12.5125 6.92574 11.3848 7.84796 10.9243 8.72227H10.8757V7.2049H7.56115V18.332H11.0125V12.8223C11.0125 11.3716 11.2875 9.9688 13.0841 9.9688C14.8542 9.9688 14.8806 11.6244 14.8806 12.9153V18.3327H18.3285Z"/>
        <path d="M1.94101 7.2056H5.39657V18.3327H1.94101V7.2056Z" />
        <path d="M3.6674 1.66602C2.56254 1.66602 1.66602 2.56254 1.66602 3.6674C1.66602 4.77227 2.56254 5.68754 3.6674 5.68754C4.77227 5.68754 5.66879 4.77227 5.66879 3.6674C5.6681 2.56254 4.77157 1.66602 3.6674 1.66602Z" />
    </symbol>
    <!-- иконка logo CREATEX header -->
    <symbol id="logo" width="130" height="22" viewBox="0 0 142 24" xmlns="http://www.w3.org/2000/svg">
        <path d="M0 12.1089C0 5.45433 3.60461 1.41797 9.50308 1.41797C13.9815 1.41797 17.5862 4.14524 18.2415 8.18161C18.3508 8.61797 18.0231 8.94524 17.5862 8.94524H14.7462C14.4185 8.94524 14.2 8.72706 14.0908 8.39979C13.5446 6.32706 11.7969 5.01797 9.50308 5.01797C6.33538 5.01797 4.36923 7.74524 4.36923 12.1089C4.36923 16.4725 6.33538 19.1998 9.61231 19.1998C11.9062 19.1998 13.5446 17.9998 14.2 16.0362C14.3092 15.7089 14.5277 15.4907 14.8554 15.4907H17.6954C18.1323 15.4907 18.46 15.9271 18.3508 16.2543C17.6954 20.1816 14.2 22.7998 9.61231 22.7998C3.60462 22.7998 0 18.6543 0 12.1089Z" />
        <path d="M26.5428 22.2546H23.3751C23.0474 22.2546 22.8289 22.0364 22.8289 21.7092V2.83643C22.8289 2.40007 23.2659 1.9637 23.7028 1.9637H31.3489C35.8274 1.9637 38.5582 4.47279 38.5582 8.40007C38.5582 10.691 37.4659 12.7637 35.6089 13.8546C35.172 14.0728 35.0628 14.6182 35.2812 14.9455L38.6674 21.3819C38.8859 21.7092 38.5582 22.1455 38.2305 22.1455H34.6259C34.4074 22.1455 34.1889 22.0364 34.0797 21.8182L30.912 15.2728C30.8028 14.9455 30.4751 14.8364 30.1474 14.8364H27.6351C27.3074 14.8364 27.0889 15.0546 27.0889 15.3819V21.8182C27.1982 22.0364 26.8705 22.2546 26.5428 22.2546ZM27.1982 11.1273C27.1982 11.4546 27.4166 11.6728 27.7443 11.6728H31.0212C33.2059 11.6728 34.4074 10.4728 34.4074 8.50916C34.4074 6.54552 33.0966 5.34552 31.0212 5.34552H27.8535C27.5259 5.34552 27.3074 5.5637 27.3074 5.89098V11.1273H27.1982Z"/>
        <path d="M56.2537 22.2546H44.2383C43.8014 22.2546 43.4737 21.9273 43.4737 21.491V2.72734C43.4737 2.29098 43.8014 1.9637 44.2383 1.9637H56.2537C56.6906 1.9637 57.0183 2.29098 57.0183 2.72734V4.80007C57.0183 5.23643 56.6906 5.5637 56.2537 5.5637H48.2798C47.9521 5.5637 47.7337 5.78188 47.7337 6.10916V9.81825C47.7337 10.1455 47.9521 10.3637 48.2798 10.3637H55.7075C56.1445 10.3637 56.4721 10.691 56.4721 11.1273V12.9819C56.4721 13.4182 56.1445 13.7455 55.7075 13.7455H48.2798C47.9521 13.7455 47.7337 13.9637 47.7337 14.291V18.4364C47.7337 18.7637 47.9521 18.9819 48.2798 18.9819H56.2537C56.6906 18.9819 57.0183 19.3092 57.0183 19.7455V21.8182C57.0183 21.9273 56.6906 22.2546 56.2537 22.2546Z"/>
        <path d="M73.1846 17.3455H66.9584C66.6307 17.3455 66.4123 17.5637 66.303 17.7819L65.1015 21.8182C64.9923 22.1455 64.7738 22.2546 64.4461 22.2546H61.6061C61.1692 22.2546 60.8415 21.8182 60.9507 21.3819L67.5046 2.40007C67.6138 2.18189 67.8323 1.9637 68.16 1.9637H72.2015C72.5292 1.9637 72.7476 2.18189 72.8569 2.40007L79.4107 21.3819C79.5199 21.8182 79.1923 22.2546 78.7553 22.2546H75.5876C75.2599 22.2546 75.0415 22.0364 74.9323 21.8182L73.7307 17.7819C73.7307 17.5637 73.403 17.3455 73.1846 17.3455ZM67.8323 14.1819H72.3107C72.5292 14.1819 72.6384 13.9637 72.6384 13.7455L70.2353 6.10916H70.0169L67.6138 13.7455C67.5046 13.9637 67.6138 14.1819 67.8323 14.1819Z"/>
        <path d="M86.2925 21.4914V6.00049C86.2925 5.67322 86.074 5.45504 85.7463 5.45504H80.9402C80.5033 5.45504 80.0663 5.12777 80.0663 4.58231V2.72777C80.0663 2.2914 80.394 1.85504 80.9402 1.85504H95.7955C96.2324 1.85504 96.6694 2.18231 96.6694 2.72777V4.58231C96.6694 5.01867 96.3417 5.45504 95.7955 5.45504H90.9894C90.6617 5.45504 90.4432 5.67322 90.4432 6.00049V21.6005C90.4432 22.0369 90.1155 22.3641 89.6786 22.3641H86.9479C86.6202 22.255 86.2925 21.9278 86.2925 21.4914Z"/>
        <path d="M113.381 22.2546H101.366C100.929 22.2546 100.601 21.9273 100.601 21.491V2.72734C100.601 2.29098 100.929 1.9637 101.366 1.9637H113.381C113.818 1.9637 114.146 2.29098 114.146 2.72734V4.80007C114.146 5.23643 113.818 5.5637 113.381 5.5637H105.408C105.08 5.5637 104.861 5.78188 104.861 6.10916V9.81825C104.861 10.1455 105.08 10.3637 105.408 10.3637H112.835C113.272 10.3637 113.6 10.691 113.6 11.1273V12.9819C113.6 13.4182 113.272 13.7455 112.835 13.7455H105.408C105.08 13.7455 104.861 13.9637 104.861 14.291V18.4364C104.861 18.7637 105.08 18.9819 105.408 18.9819H113.381C113.818 18.9819 114.146 19.3092 114.146 19.7455V21.8182C114.146 21.9273 113.818 22.2546 113.381 22.2546Z"/>
        <path d="M128.564 10.5827L121.792 1.74634C121.355 1.30998 120.809 1.0918 120.263 1.0918C119.717 1.0918 119.171 1.30998 118.734 1.74634C117.969 2.61907 117.969 3.92816 118.734 4.80089L124.086 12.0009L118.734 19.2009C117.969 20.0736 117.969 21.3827 118.734 22.2554C119.171 22.6918 119.717 22.91 120.263 22.91C120.809 22.91 121.355 22.6918 121.792 22.2554L128.564 13.4191C129.329 12.7645 129.329 11.4554 128.564 10.5827Z" fill="#FF5A30"/>
        <path d="M131.451 10.5827L138.223 1.74634C138.66 1.30998 139.207 1.0918 139.753 1.0918C140.299 1.0918 140.845 1.30998 141.282 1.74634C142.047 2.61907 142.047 3.92816 141.282 4.80089L135.93 12.0009L141.282 19.2009C142.047 20.0736 142.047 21.3827 141.282 22.2554C140.845 22.6918 140.299 22.91 139.753 22.91C139.207 22.91 138.66 22.6918 138.223 22.2554L131.451 13.4191C130.686 12.7645 130.686 11.4554 131.451 10.5827Z" fill="#FF5A30"/>
    </symbol>
    <!-- иконка logo CREATEX footer -->
    <symbol id="logo-footer" width="142" height="24" viewBox="0 0 142 24" xmlns="http://www.w3.org/2000/svg">
        <path d="M0 12.1089C0 5.45433 3.60461 1.41797 9.50308 1.41797C13.9815 1.41797 17.5862 4.14524 18.2415 8.18161C18.3508 8.61797 18.0231 8.94524 17.5862 8.94524H14.7462C14.4185 8.94524 14.2 8.72706 14.0908 8.39979C13.5446 6.32706 11.7969 5.01797 9.50308 5.01797C6.33538 5.01797 4.36923 7.74524 4.36923 12.1089C4.36923 16.4725 6.33538 19.1998 9.61231 19.1998C11.9062 19.1998 13.5446 17.9998 14.2 16.0362C14.3092 15.7089 14.5277 15.4907 14.8554 15.4907H17.6954C18.1323 15.4907 18.46 15.9271 18.3508 16.2543C17.6954 20.1816 14.2 22.7998 9.61231 22.7998C3.60462 22.7998 0 18.6543 0 12.1089Z" />
        <path d="M26.5428 22.2546H23.3751C23.0474 22.2546 22.8289 22.0364 22.8289 21.7092V2.83643C22.8289 2.40007 23.2659 1.9637 23.7028 1.9637H31.3489C35.8274 1.9637 38.5582 4.47279 38.5582 8.40007C38.5582 10.691 37.4659 12.7637 35.6089 13.8546C35.172 14.0728 35.0628 14.6182 35.2812 14.9455L38.6674 21.3819C38.8859 21.7092 38.5582 22.1455 38.2305 22.1455H34.6259C34.4074 22.1455 34.1889 22.0364 34.0797 21.8182L30.912 15.2728C30.8028 14.9455 30.4751 14.8364 30.1474 14.8364H27.6351C27.3074 14.8364 27.0889 15.0546 27.0889 15.3819V21.8182C27.1982 22.0364 26.8705 22.2546 26.5428 22.2546ZM27.1982 11.1273C27.1982 11.4546 27.4166 11.6728 27.7443 11.6728H31.0212C33.2059 11.6728 34.4074 10.4728 34.4074 8.50916C34.4074 6.54552 33.0966 5.34552 31.0212 5.34552H27.8535C27.5259 5.34552 27.3074 5.5637 27.3074 5.89098V11.1273H27.1982Z"/>
        <path d="M56.2537 22.2546H44.2383C43.8014 22.2546 43.4737 21.9273 43.4737 21.491V2.72734C43.4737 2.29098 43.8014 1.9637 44.2383 1.9637H56.2537C56.6906 1.9637 57.0183 2.29098 57.0183 2.72734V4.80007C57.0183 5.23643 56.6906 5.5637 56.2537 5.5637H48.2798C47.9521 5.5637 47.7337 5.78188 47.7337 6.10916V9.81825C47.7337 10.1455 47.9521 10.3637 48.2798 10.3637H55.7075C56.1445 10.3637 56.4721 10.691 56.4721 11.1273V12.9819C56.4721 13.4182 56.1445 13.7455 55.7075 13.7455H48.2798C47.9521 13.7455 47.7337 13.9637 47.7337 14.291V18.4364C47.7337 18.7637 47.9521 18.9819 48.2798 18.9819H56.2537C56.6906 18.9819 57.0183 19.3092 57.0183 19.7455V21.8182C57.0183 21.9273 56.6906 22.2546 56.2537 22.2546Z"/>
        <path d="M73.1846 17.3455H66.9584C66.6307 17.3455 66.4123 17.5637 66.303 17.7819L65.1015 21.8182C64.9923 22.1455 64.7738 22.2546 64.4461 22.2546H61.6061C61.1692 22.2546 60.8415 21.8182 60.9507 21.3819L67.5046 2.40007C67.6138 2.18189 67.8323 1.9637 68.16 1.9637H72.2015C72.5292 1.9637 72.7476 2.18189 72.8569 2.40007L79.4107 21.3819C79.5199 21.8182 79.1923 22.2546 78.7553 22.2546H75.5876C75.2599 22.2546 75.0415 22.0364 74.9323 21.8182L73.7307 17.7819C73.7307 17.5637 73.403 17.3455 73.1846 17.3455ZM67.8323 14.1819H72.3107C72.5292 14.1819 72.6384 13.9637 72.6384 13.7455L70.2353 6.10916H70.0169L67.6138 13.7455C67.5046 13.9637 67.6138 14.1819 67.8323 14.1819Z"/>
        <path d="M86.2925 21.4914V6.00049C86.2925 5.67322 86.074 5.45504 85.7463 5.45504H80.9402C80.5033 5.45504 80.0663 5.12777 80.0663 4.58231V2.72777C80.0663 2.2914 80.394 1.85504 80.9402 1.85504H95.7955C96.2324 1.85504 96.6694 2.18231 96.6694 2.72777V4.58231C96.6694 5.01867 96.3417 5.45504 95.7955 5.45504H90.9894C90.6617 5.45504 90.4432 5.67322 90.4432 6.00049V21.6005C90.4432 22.0369 90.1155 22.3641 89.6786 22.3641H86.9479C86.6202 22.255 86.2925 21.9278 86.2925 21.4914Z"/>
        <path d="M113.381 22.2546H101.366C100.929 22.2546 100.601 21.9273 100.601 21.491V2.72734C100.601 2.29098 100.929 1.9637 101.366 1.9637H113.381C113.818 1.9637 114.146 2.29098 114.146 2.72734V4.80007C114.146 5.23643 113.818 5.5637 113.381 5.5637H105.408C105.08 5.5637 104.861 5.78188 104.861 6.10916V9.81825C104.861 10.1455 105.08 10.3637 105.408 10.3637H112.835C113.272 10.3637 113.6 10.691 113.6 11.1273V12.9819C113.6 13.4182 113.272 13.7455 112.835 13.7455H105.408C105.08 13.7455 104.861 13.9637 104.861 14.291V18.4364C104.861 18.7637 105.08 18.9819 105.408 18.9819H113.381C113.818 18.9819 114.146 19.3092 114.146 19.7455V21.8182C114.146 21.9273 113.818 22.2546 113.381 22.2546Z"/>
        <path d="M128.564 10.5827L121.792 1.74634C121.355 1.30998 120.809 1.0918 120.263 1.0918C119.717 1.0918 119.171 1.30998 118.734 1.74634C117.969 2.61907 117.969 3.92816 118.734 4.80089L124.086 12.0009L118.734 19.2009C117.969 20.0736 117.969 21.3827 118.734 22.2554C119.171 22.6918 119.717 22.91 120.263 22.91C120.809 22.91 121.355 22.6918 121.792 22.2554L128.564 13.4191C129.329 12.7645 129.329 11.4554 128.564 10.5827Z" fill="#FF5A30"/>
        <path d="M131.451 10.5827L138.223 1.74634C138.66 1.30998 139.207 1.0918 139.753 1.0918C140.299 1.0918 140.845 1.30998 141.282 1.74634C142.047 2.61907 142.047 3.92816 141.282 4.80089L135.93 12.0009L141.282 19.2009C142.047 20.0736 142.047 21.3827 141.282 22.2554C140.845 22.6918 140.299 22.91 139.753 22.91C139.207 22.91 138.66 22.6918 138.223 22.2554L131.451 13.4191C130.686 12.7645 130.686 11.4554 131.451 10.5827Z" fill="#FF5A30"/>
    </symbol>
    <!-- иконка heart -->
    <symbol id="heart" width="16" height="16" viewBox="0 0 16 16" xmlns="http://www.w3.org/2000/svg">
      <path fill-rule="evenodd" clip-rule="evenodd" d="M7.99925 13.2715C4.93321 11.5252 3.22318 9.78955 2.39626 8.28361C1.54992 6.74228 1.62377 5.4441 2.0934 4.52273C3.05872 2.62892 5.80378 2.02333 7.4763 4.13865L7.99921 4.80001L8.52217 4.13868C10.195 2.02327 12.9402 2.62896 13.9055 4.52273C14.3751 5.44408 14.4489 6.74226 13.6025 8.28359C12.7756 9.78954 11.0654 11.5252 7.99925 13.2715ZM7.99928 2.73726C5.64647 0.501518 2.17555 1.42555 0.905488 3.91723C0.20846 5.2847 0.198939 7.05212 1.22753 8.92536C2.247 10.782 4.2796 12.7417 7.67675 14.6194L7.99924 14.7976L8.32173 14.6194C11.719 12.7417 13.7517 10.782 14.7712 8.92537C15.7999 7.05214 15.7904 5.28472 15.0934 3.91723C13.8233 1.4255 10.3523 0.501552 7.99928 2.73726Z"/>
    </symbol>
    <!-- ic-reload -->
    <symbol id="ic-reload" viewBox="0 0 24 24" xmlns="http://www.w3.org/2000/svg">
        <path fill-rule="evenodd" clip-rule="evenodd" d="M2.09961 2C2.65189 2 3.09961 2.44772 3.09961 3V7.43632C4.75764 4.20928 8.11959 2 11.9996 2C16.3552 2 20.058 4.78413 21.4303 8.66675C21.6144 9.18747 21.3414 9.75879 20.8207 9.94284C20.3 10.1269 19.7287 9.85396 19.5446 9.33325C18.4459 6.22472 15.4813 4 11.9996 4C9.03957 4 6.45326 5.60799 5.06955 8H8.09957C8.65186 8 9.09957 8.44772 9.09957 9C9.09957 9.55228 8.65186 10 8.09957 10H2.09961C1.54732 10 1.09961 9.55228 1.09961 9V3C1.09961 2.44772 1.54732 2 2.09961 2Z" fill="#424551"/>
        <path fill-rule="evenodd" clip-rule="evenodd" d="M3.17664 14.0572C3.69736 13.8731 4.26868 14.146 4.45273 14.6668C5.55144 17.7753 8.51608 20 11.9978 20C14.9578 20 17.5441 18.392 18.9278 16H15.8978C15.3455 16 14.8978 15.5523 14.8978 15C14.8978 14.4477 15.3455 14 15.8978 14H21.8977C22.45 14 22.8977 14.4477 22.8977 15V21C22.8977 21.5523 22.45 22 21.8977 22C21.3455 22 20.8977 21.5523 20.8977 21V16.5637C19.2397 19.7907 15.8778 22 11.9978 22C7.64215 22 3.93936 19.2159 2.56705 15.3332C2.383 14.8125 2.65593 14.2412 3.17664 14.0572Z" fill="#424551"/>
    </symbol>
    <!-- ic-brain -->
    <symbol id="ic-brain" viewBox="0 0 48 48" xmlns="http://www.w3.org/2000/svg">
        <g clip-path="url(#clip0_175466_1313)">
        <path d="M48 24C48 20.514 46.1618 17.3483 43.2212 15.6097C43.5666 14.2193 43.4353 12.7439 42.8241 11.4052C42.1704 9.97406 41.0377 8.85534 39.6346 8.22394C39.492 6.17259 38.65 4.25737 37.208 2.74491C35.5203 0.974812 33.2435 0 30.7969 0C28.1388 0 25.6596 1.19709 24 3.17737C22.3405 1.19709 19.8613 0 17.2031 0C14.7565 0 12.4797 0.974813 10.792 2.745C9.34997 4.25747 8.508 6.17259 8.36541 8.22403C6.96225 8.85544 5.82947 9.97416 5.17594 11.4053C4.56459 12.744 4.43344 14.2194 4.77881 15.6097C1.83825 17.3483 0 20.514 0 24C0 27.486 1.83825 30.6517 4.77881 32.3903C4.43344 33.7808 4.56469 35.2561 5.17594 36.5947C5.82956 38.0259 6.96234 39.1447 8.36541 39.7761C8.508 41.8274 9.34997 43.7426 10.792 45.2551C12.4797 47.0252 14.7565 48 17.2031 48C19.8613 48 22.3405 46.8029 24 44.8226C25.6596 46.8029 28.1388 48 30.7969 48C33.2435 48 35.5203 47.0252 37.208 45.255C38.65 43.7425 39.492 41.8273 39.6346 39.776C41.0378 39.1446 42.1705 38.0258 42.8241 36.5947C43.4354 35.256 43.5666 33.7807 43.2212 32.3903C46.1618 30.6517 48 27.486 48 24ZM41.1986 30.2812H34.5V26.2389H39.4688C40.2454 26.2389 40.875 25.6093 40.875 24.8327C40.875 24.7214 40.8749 20.7188 40.8749 20.7188C40.8749 19.9422 40.2453 19.3126 39.4687 19.3126C38.692 19.3126 38.0624 19.9422 38.0624 20.7188V23.4264H34.5V20.9889C34.5 19.4381 33.2383 18.1764 31.6875 18.1764H28.875C28.0984 18.1764 27.4688 18.8061 27.4688 19.5827C27.4688 20.3593 28.0984 20.9889 28.875 20.9889H31.6875V30.2812H25.4059V27.75C25.4059 26.9734 24.7763 26.3438 23.9996 26.3438C23.223 26.3438 22.5934 26.9734 22.5934 27.75V30.2812C22.5934 31.8321 23.8551 33.0938 25.4059 33.0938H40.4966C40.6814 33.8653 40.6052 34.6829 40.2656 35.4264C39.8113 36.4212 38.9462 37.1468 37.8918 37.4171C37.2455 37.5829 36.8046 38.1799 36.8364 38.8463C36.9162 40.5184 36.3252 42.1052 35.1723 43.3144C34.0207 44.5222 32.4668 45.1875 30.7969 45.1875C28.519 45.1875 26.434 43.8989 25.4062 41.882V38.9062H27.9375C28.7141 38.9062 29.3438 38.2766 29.3438 37.5C29.3438 36.7234 28.7141 36.0938 27.9375 36.0938H25.4062C23.8554 36.0938 22.5938 37.3554 22.5938 38.9062V41.8819C21.5662 43.8989 19.4812 45.1875 17.2031 45.1875C15.5332 45.1875 13.9793 44.5223 12.8276 43.3143C11.9982 42.4445 11.4616 41.3787 11.2543 40.2269H14.625C16.1758 40.2269 17.4375 38.9652 17.4375 37.4144V35.676H18.6562C19.4329 35.676 20.0625 35.0464 20.0625 34.2698C20.0625 33.4931 19.4329 32.8635 18.6562 32.8635H17.4375V31.125C17.4375 29.5742 16.1758 28.3125 14.625 28.3125H12.1875C11.4109 28.3125 10.7812 28.9421 10.7812 29.7188C10.7812 30.4954 11.4109 31.125 12.1875 31.125H14.625V37.4144C14.625 37.4144 10.1117 37.418 10.1081 37.417C9.05372 37.1467 8.1885 36.4211 7.73428 35.4263C7.27903 34.4294 7.29666 33.2992 7.78294 32.3254C7.95666 31.9773 7.9785 31.5728 7.84322 31.2081C7.70794 30.8434 7.42753 30.551 7.06875 30.4005C4.48313 29.3158 2.8125 26.8034 2.8125 24C2.8125 21.1966 4.48313 18.6842 7.06866 17.5996C7.11019 17.5822 7.15041 17.5624 7.18978 17.5413H9.37491V21.76C9.37491 22.5367 10.0045 23.1663 10.7812 23.1663C11.5578 23.1663 12.1874 22.5367 12.1874 21.76V17.5413H17.4375V24.385C17.4375 25.1617 18.0671 25.7913 18.8438 25.7913C19.6204 25.7913 20.25 25.1617 20.25 24.385V21.8538H21.6203C22.397 21.8538 23.0266 21.2242 23.0266 20.4475C23.0266 19.6709 22.397 19.0413 21.6203 19.0413H20.25V17.5413C20.25 15.9905 18.9883 14.7288 17.4375 14.7288H16.5938V10.9688C16.5938 10.1921 15.9642 9.5625 15.1876 9.5625C14.411 9.5625 13.7813 10.1921 13.7813 10.9688V14.7287H7.46531C7.33162 14.0102 7.42069 13.2603 7.73428 12.5736C8.18859 11.5788 9.05372 10.8533 10.1081 10.5829C10.7544 10.4171 11.1953 9.82012 11.1635 9.15366C11.0837 7.48163 11.6747 5.89481 12.8276 4.68563C13.9793 3.47775 15.5332 2.8125 17.2031 2.8125C19.5528 2.8125 21.6971 4.18341 22.6875 6.31059V11.0625C22.6875 12.6133 23.9492 13.875 25.5 13.875H33C33.7766 13.875 34.4062 13.2454 34.4062 12.4688C34.4062 11.6921 33.7766 11.0625 33 11.0625H32.7188V9.09375C32.7188 8.31713 32.0891 7.6875 31.3125 7.6875C30.5359 7.6875 29.9062 8.31713 29.9062 9.09375V11.0625H25.5C25.5 11.0625 25.4975 5.99962 25.4929 5.95341C26.5483 4.03116 28.5816 2.8125 30.7969 2.8125C32.4668 2.8125 34.0207 3.47775 35.1724 4.68572C36.3253 5.89491 36.9163 7.48163 36.8365 9.15375C36.8047 9.82022 37.2456 10.4172 37.8919 10.583C38.9463 10.8533 39.8115 11.5789 40.2657 12.5737C40.721 13.5706 40.7033 14.7008 40.2171 15.6747C40.0433 16.0227 40.0215 16.4272 40.1568 16.7919C40.2921 17.1566 40.5726 17.449 40.9313 17.5995C43.5169 18.6842 45.1875 21.1966 45.1875 24C45.1875 26.7055 43.6312 29.1395 41.1986 30.2812Z"/>
        </g>
        <defs>
        <clipPath id="clip0_175466_1313">
        <rect width="48" height="48" fill="white"/>
        </clipPath>
        </defs>
    </symbol>
    <!-- ic-budget -->
    <symbol id="ic-budget" viewBox="0 0 48 48"  xmlns="http://www.w3.org/2000/svg">
        <g clip-path="url(#clip0_175466_781)">
        <path d="M29.5584 11.3411C31.2113 9.83141 32.25 7.65979 32.25 5.25004V1.50004C32.25 1.01788 32.0183 0.565071 31.627 0.283164C31.2359 0.0012582 30.7331 -0.0754293 30.2756 0.0770082L27.5279 0.992946C25.2528 1.75129 22.747 1.75129 20.472 0.992946L17.7243 0.0770082C17.2671 -0.075523 16.764 0.0012582 16.3729 0.283164C15.9817 0.565071 15.75 1.01788 15.75 1.50004V5.25004C15.75 7.65979 16.7887 9.83141 18.4416 11.3411C10.8082 13.7153 5.25 20.8457 5.25 29.25V41.8125C5.25 45.2244 8.02566 48 11.4375 48H36.5625C39.9743 48 42.75 45.2244 42.75 41.8125V29.25C42.75 20.8457 37.1918 13.7153 29.5584 11.3411ZM18.75 5.25004V3.5812L19.5234 3.83901C22.4102 4.80126 25.5898 4.80135 28.4767 3.83901L29.2501 3.5812V5.25004C29.2501 8.14485 26.8949 10.5 24.0001 10.5C21.1053 10.5 18.75 8.14495 18.75 5.25004ZM39.75 41.8125C39.75 43.5702 38.3201 45 36.5625 45H11.4375C9.67987 45 8.25 43.5702 8.25 41.8125V29.25C8.25 20.5654 15.3154 13.5 24 13.5C32.6846 13.5 39.75 20.5654 39.75 29.25V41.8125Z"/>
        <path d="M24 27.75C22.3458 27.75 21 26.4042 21 24.75C21 23.0958 22.3458 21.75 24 21.75C25.6542 21.75 27 23.0958 27 24.75C27 25.5784 27.6716 26.25 28.5 26.25C29.3284 26.25 30 25.5784 30 24.75C30 21.9593 28.0849 19.6076 25.5 18.9398V18C25.5 17.1716 24.8284 16.5 24 16.5C23.1716 16.5 22.5 17.1716 22.5 18V18.9398C19.9151 19.6076 18 21.9593 18 24.75C18 28.0584 20.6916 30.75 24 30.75C25.6542 30.75 27 32.0958 27 33.75C27 35.4042 25.6542 36.75 24 36.75C22.3458 36.75 21 35.4042 21 33.75C21 32.9216 20.3284 32.25 19.5 32.25C18.6716 32.25 18 32.9216 18 33.75C18 36.5407 19.9151 38.8924 22.5 39.5602V40.5C22.5 41.3284 23.1716 42 24 42C24.8284 42 25.5 41.3284 25.5 40.5V39.5602C28.0849 38.8924 30 36.5407 30 33.75C30 30.4417 27.3084 27.75 24 27.75Z"/>
        </g>
        <defs>
        <clipPath id="clip0_175466_781">
        <rect width="48" height="48" fill="white"/>
        </clipPath>
        </defs>
    </symbol>
    <!-- ic-seccess -->
    <symbol id="ic-seccess" viewBox="0 0 48 48" xmlns="http://www.w3.org/2000/svg">
        <g clip-path="url(#clip0_175466_964)">
        <path d="M42.8265 15.0619H36.7016V10.3436H46.5918C46.5926 10.3436 46.5933 10.3436 46.5937 10.3436C47.3704 10.3436 47.9999 9.71373 47.9999 8.93736C47.9999 8.52684 47.8245 8.1577 47.544 7.90062L44.815 5.17162L47.5865 2.40051C47.9886 1.99841 48.1087 1.39343 47.8911 0.868284C47.6736 0.342773 47.1609 0 46.5922 0H35.2953C34.519 0 33.8895 0.629515 33.8895 1.40625V15.0619H32.2829C29.4312 15.0619 27.1113 17.3822 27.1113 20.2338V23.1646C26.4034 22.8002 25.6018 22.593 24.7521 22.593H23.2459C20.3942 22.593 18.0743 24.9129 18.0743 27.7646V30.6957C17.3661 30.3314 16.5644 30.1241 15.7148 30.1241H14.209C11.3569 30.1241 9.03697 32.444 9.03697 35.2957V38.2269C8.32909 37.8621 7.52745 37.6548 6.67784 37.6548H5.17162C2.31994 37.6548 0 39.9748 0 42.8265V46.5918C0 47.3686 0.629515 47.9981 1.40625 47.9981H46.5918C47.3686 47.9981 47.9981 47.3686 47.9981 46.5918V20.2338C47.9981 17.3822 45.6781 15.0619 42.8265 15.0619ZM36.7016 2.81249H43.1971L41.8322 4.17736C41.5682 4.44103 41.4202 4.79882 41.4202 5.17162C41.4202 5.54479 41.5682 5.90221 41.8322 6.16625L43.1971 7.53111H36.7016V2.81249ZM2.81249 42.8265C2.81249 41.5257 3.87084 40.4673 5.17162 40.4673H6.67784C7.97862 40.4673 9.03697 41.5257 9.03697 42.8265V45.1859H2.81249V42.8265ZM11.8495 42.8265V35.2957C11.8495 33.9946 12.9078 32.9362 14.2086 32.9362H15.7148C17.0156 32.9362 18.0739 33.9946 18.0739 35.2957V45.1859H11.8495V42.8265ZM20.8864 35.2957V27.7646C20.8864 26.4638 21.9451 25.4055 23.2459 25.4055H24.7521C26.0529 25.4055 27.1113 26.4638 27.1113 27.7646V45.1859H20.8864V35.2957ZM45.1856 45.1859H29.9238V20.2338C29.9238 18.9327 30.9821 17.8744 32.2829 17.8744H42.8265C44.1272 17.8744 45.1856 18.9327 45.1856 20.2338V45.1859Z"/>
        </g>
        <defs>
        <clipPath id="clip0_175466_964">
        <rect width="48" height="48" fill="white"/>
        </clipPath>
        </defs>
    </symbol>
    <!-- ic-clock -->
    <symbol id="ic-clock" viewBox="0 0 20 20"  xmlns="http://www.w3.org/2000/svg">
        <path d="M10.834 5.41634C10.834 4.9561 10.4609 4.58301 10.0007 4.58301C9.54041 4.58301 9.16732 4.9561 9.16732 5.41634V9.99967C9.16732 10.2207 9.25512 10.4327 9.4114 10.5889L11.9114 13.0889C12.2368 13.4144 12.7645 13.4144 13.0899 13.0889C13.4153 12.7635 13.4153 12.2359 13.0899 11.9104L10.834 9.6545V5.41634Z"/>
        <path fill-rule="evenodd" clip-rule="evenodd" d="M10.0007 0.833008C4.93804 0.833008 0.833984 4.93706 0.833984 9.99967C0.833984 15.0623 4.93804 19.1663 10.0007 19.1663C15.0633 19.1663 19.1673 15.0623 19.1673 9.99967C19.1673 4.93706 15.0633 0.833008 10.0007 0.833008ZM2.50065 9.99967C2.50065 5.85754 5.85852 2.49967 10.0007 2.49967C14.1428 2.49967 17.5007 5.85754 17.5007 9.99967C17.5007 14.1418 14.1428 17.4997 10.0007 17.4997C5.85852 17.4997 2.50065 14.1418 2.50065 9.99967Z"/>
    </symbol>
    <!-- replay share -->
    <symbol id="ic-replay" viewBox="0 0 16 16" xmlns="http://www.w3.org/2000/svg">
        <path d="M0.667318 7.32816L6.7625 0.666016V4.64077H8.05839C12.0766 4.64077 15.334 7.88764 15.334 11.893V13.9993L14.7584 13.3706C12.8014 11.2333 10.0324 10.0156 7.1293 10.0156H6.7625V13.9903L0.667318 7.32816Z"/>
    </symbol>
    <!-- ic-up-chevron -->
    <symbol id="ic-up-chevron" viewBox="0 0 24 24"  xmlns="http://www.w3.org/2000/svg">
        <path fill-rule="evenodd" clip-rule="evenodd" d="M4.29289 15.7071C3.90237 15.3166 3.90237 14.6834 4.29289 14.2929L11.2929 7.29289C11.6834 6.90237 12.3166 6.90237 12.7071 7.29289L19.7071 14.2929C20.0976 14.6834 20.0976 15.3166 19.7071 15.7071C19.3166 16.0976 18.6834 16.0976 18.2929 15.7071L12 9.41421L5.70711 15.7071C5.31658 16.0976 4.68342 16.0976 4.29289 15.7071Z"/>
    </symbol>
    <!-- ic-attach скрепка-->
    <symbol id="ic-attach" viewBox="0 0 24 24" xmlns="http://www.w3.org/2000/svg">
        <g clip-path="url(#clip0_1522_492)">
            <path fill-rule="evenodd" clip-rule="evenodd" d="M18.4305 3.93473C16.6244 2.12856 13.696 2.12856 11.8898 3.93473L5.54807 10.2765C5.15754 10.667 4.52438 10.667 4.13385 10.2765C3.74333 9.88593 3.74333 9.25276 4.13385 8.86224L10.4756 2.52052C13.0628 -0.0667034 17.2575 -0.0667034 19.8447 2.52052C22.432 5.10774 22.432 9.30246 19.8447 11.8897L11.314 20.4205C9.45897 22.2755 6.45144 22.2755 4.59645 20.4205C2.74146 18.5655 2.74146 15.5579 4.59645 13.7029L4.60028 13.6991L4.60029 13.6991L11.0406 7.3282C11.0413 7.32749 11.042 7.32678 11.0427 7.32608C12.1409 6.2301 13.9254 6.14718 15.0718 7.29351C16.1945 8.41627 16.1945 10.2366 15.0718 11.3594L10.564 15.8672C10.1734 16.2577 9.54028 16.2577 9.14975 15.8672C8.75923 15.4767 8.75923 14.8435 9.14975 14.453L13.6576 9.94516C13.9993 9.60345 13.9993 9.04943 13.6576 8.70772C13.3402 8.39033 12.8213 8.37594 12.4548 8.74241L12.451 8.74624L12.451 8.74623L6.01066 15.1172C6.01006 15.1178 6.00946 15.1184 6.00885 15.119C4.93672 16.1931 4.93732 17.9329 6.01066 19.0062C7.0846 20.0802 8.82581 20.0802 9.89975 19.0062L18.4305 10.4755C20.2367 8.6693 20.2367 5.74091 18.4305 3.93473Z"/>
        </g>
        <defs>
            <clipPath id="clip0_1522_492">
             <rect width="24" height="24" fill="white"/>
            </clipPath>
        </defs>
    </symbol>
    <!-- ic-iPhone-->
    <symbol id="ic-iPhone" viewBox="0 0 40 40" xmlns="http://www.w3.org/2000/svg">
        <path fill-rule="evenodd" clip-rule="evenodd" d="M14.1663 4.86947C12.7856 4.86947 11.6663 5.98875 11.6663 7.36947V32.6299C11.6663 34.0106 12.7856 35.1299 14.1663 35.1299H25.833C27.2137 35.1299 28.333 34.0106 28.333 32.6299V7.36947C28.333 5.98875 27.2137 4.86947 25.833 4.86947H25.694L25.2881 5.84355C25.0293 6.46458 24.4225 6.86909 23.7497 6.86909H16.2497C15.5769 6.86909 14.9701 6.46458 14.7113 5.84355L14.3053 4.86947H14.1663ZM8.33301 7.36947C8.33301 4.1478 10.9447 1.53613 14.1663 1.53613H25.833C29.0547 1.53613 31.6663 4.1478 31.6663 7.36947V32.6299C31.6663 35.8515 29.0547 38.4632 25.833 38.4632H14.1663C10.9447 38.4632 8.33301 35.8515 8.33301 32.6299V7.36947Z" fill="#FF5A30"/>
    </symbol>
    <!-- ic-chat-->
    <svg id="ic-chat" viewBox="0 0 40 40" xmlns="http://www.w3.org/2000/svg">
        <path fill-rule="evenodd" clip-rule="evenodd" d="M36.5387 17.6113C36.3013 19.2559 35.7387 20.8189 34.905 22.2563C34.9675 22.6121 34.9996 22.9719 34.9996 23.3331C34.9996 24.5878 34.636 25.7886 33.9626 26.8796C33.6264 27.4242 33.5399 28.0623 33.5067 28.4839C33.4685 28.9671 33.4814 29.4958 33.5159 30.0037C33.5546 30.5735 33.6246 31.1717 33.7048 31.736C33.0543 31.5463 32.3492 31.3558 31.6763 31.204C31.1166 31.0777 30.5439 30.9701 30.0252 30.9165C29.5727 30.8698 28.9188 30.8336 28.3341 31.0226C27.0556 31.4359 25.6488 31.6665 24.1662 31.6665C22.403 31.6665 20.7837 31.3535 19.3643 30.8098C19.0229 30.8253 18.679 30.8331 18.3328 30.8331C16.3252 30.8331 14.3929 30.5691 12.585 30.0811C15.2132 33.1209 19.546 34.9998 24.1662 34.9998C25.9711 34.9998 27.7034 34.7227 29.2999 34.2135C29.3027 34.2136 29.3078 34.2135 29.3153 34.2133C29.3563 34.2125 29.4701 34.2103 29.6827 34.2322C30.017 34.2667 30.4469 34.3438 30.9428 34.4556C31.9301 34.6783 33.0395 35.007 33.9041 35.2814C35.7377 35.8635 37.5143 34.2634 37.1866 32.4027C37.0456 31.6019 36.899 30.6245 36.8415 29.7778C36.8126 29.3521 36.8094 29.0026 36.8297 28.7462C36.8381 28.6399 36.8488 28.5733 36.8556 28.5379C37.7933 26.9846 38.3329 25.216 38.3329 23.3331C38.3329 21.2105 37.6736 19.2723 36.5387 17.6113Z" fill="#FF5A30"/>
        <path fill-rule="evenodd" clip-rule="evenodd" d="M9.32773 9.49661C7.08113 11.2146 5.83266 13.4698 5.83266 15.833C5.83266 17.0114 6.13943 18.1463 6.71496 19.2017C6.93417 19.6037 6.99636 20.0183 7.0186 20.299C7.04285 20.6051 7.03076 20.9197 7.00414 21.2139C6.95085 21.8028 6.82372 22.4701 6.67124 23.1274C6.49287 23.8962 6.26431 24.7162 6.03239 25.486C6.91281 25.166 7.87508 24.8381 8.78733 24.5719C9.52461 24.3568 10.2692 24.1702 10.9318 24.0654C11.5027 23.9751 12.3311 23.8864 13.0443 24.1332C14.6448 24.6869 16.4353 24.9997 18.3327 24.9997C21.9113 24.9997 25.0895 23.8886 27.3376 22.1694C29.5842 20.4514 30.8327 18.1962 30.8327 15.833C30.8327 13.4698 29.5842 11.2146 27.3376 9.49661C25.0895 7.77745 21.9113 6.66634 18.3327 6.66634C14.754 6.66634 11.5759 7.77745 9.32773 9.49661ZM7.30289 6.84875C10.1821 4.64702 14.0872 3.33301 18.3327 3.33301C22.5781 3.33301 26.4832 4.64702 29.3624 6.84875C32.2431 9.05167 34.166 12.2131 34.166 15.833C34.166 19.4529 32.2431 22.6143 29.3624 24.8173C26.4832 27.019 22.5781 28.333 18.3327 28.333C16.0942 28.333 13.9561 27.9681 12.0148 27.3041C12.0128 27.3095 11.8554 27.2941 11.4524 27.3578C10.988 27.4313 10.3952 27.5751 9.72089 27.7719C8.37845 28.1635 6.87087 28.7176 5.72255 29.1645C3.73317 29.9387 1.70658 28.0281 2.37685 25.9929C2.7321 24.9142 3.15108 23.5511 3.42414 22.3741C3.5617 21.7812 3.65096 21.2827 3.68437 20.9135C3.69596 20.7853 3.69896 20.6919 3.69829 20.6288C2.93115 19.1629 2.49932 17.5417 2.49932 15.833C2.49932 12.2131 4.42216 9.05167 7.30289 6.84875ZM3.6928 20.5379C3.69296 20.5377 3.69377 20.5422 3.69475 20.5518C3.69313 20.5429 3.69264 20.5381 3.6928 20.5379Z" fill="#FF5A30"/>
    </svg>




</svg>



    

