<svg width="12" height="15" viewBox="0 0 12 15" fill="none" xmlns="http://www.w3.org/2000/svg">
<path fill-rule="evenodd" clip-rule="evenodd" d="M5.66667 4.33333C4.93029 4.33333 4.33333 4.93029 4.33333 5.66667C4.33333 6.40305 4.93029 7 5.66667 7C6.40305 7 7 6.40305 7 5.66667C7 4.93029 6.40305 4.33333 5.66667 4.33333ZM3 5.66667C3 4.19391 4.19391 3 5.66667 3C7.13943 3 8.33333 4.19391 8.33333 5.66667C8.33333 7.13943 7.13943 8.33333 5.66667 8.33333C4.19391 8.33333 3 7.13943 3 5.66667Z" fill="#787A80"/>
<path fill-rule="evenodd" clip-rule="evenodd" d="M5.66667 1.33333C3.25364 1.33333 1.33333 3.22404 1.33333 5.51282C1.33333 7.3787 2.45467 9.26322 3.68043 10.7455C4.28217 11.4732 4.88561 12.0759 5.33898 12.4968C5.46025 12.6093 5.57047 12.7086 5.66667 12.7935C5.76286 12.7086 5.87308 12.6093 5.99436 12.4968C6.44772 12.0759 7.05117 11.4732 7.65291 10.7455C8.87866 9.26322 10 7.3787 10 5.51282C10 3.22404 8.07969 1.33333 5.66667 1.33333ZM5.66667 13.6667C5.25412 14.1904 5.25396 14.1902 5.25379 14.1901L5.25213 14.1888L5.24834 14.1858L5.23542 14.1755C5.22448 14.1667 5.20893 14.1542 5.18907 14.138C5.14935 14.1056 5.09239 14.0585 5.02065 13.9976C4.87721 13.876 4.67436 13.6991 4.43186 13.474C3.94772 13.0245 3.30117 12.3791 2.65291 11.5952C1.37866 10.0543 0 7.86187 0 5.51282C0 2.44869 2.55685 0 5.66667 0C8.77649 0 11.3333 2.44869 11.3333 5.51282C11.3333 7.86187 9.95467 10.0543 8.68043 11.5952C8.03217 12.3791 7.38561 13.0245 6.90148 13.474C6.65898 13.6991 6.45612 13.876 6.31269 13.9976C6.24094 14.0585 6.18398 14.1056 6.14427 14.138C6.12441 14.1542 6.10885 14.1667 6.09791 14.1755L6.08499 14.1858L6.0812 14.1888L6.07998 14.1898C6.07981 14.1899 6.07922 14.1904 5.66667 13.6667ZM5.66667 13.6667L6.07922 14.1904C5.83722 14.381 5.49579 14.3807 5.25379 14.1901L5.66667 13.6667Z" fill="#787A80"/>
</svg>
